<?xml version="1.0" standalone="no"?>
<!DOCTYPE svg PUBLIC "-//W3C//DTD SVG 20010904//EN"
 "http://www.w3.org/TR/2001/REC-SVG-20010904/DTD/svg10.dtd">
<svg version="1.0" xmlns="http://www.w3.org/2000/svg"
 width="611.000000pt" height="332.000000pt" viewBox="0 0 611.000000 332.000000"
 preserveAspectRatio="xMidYMid meet">

<g transform="translate(0.000000,332.000000) scale(0.100000,-0.100000)"
fill="#000000" stroke="none">
<path d="M4337 2862 c-10 -10 -17 -21 -17 -25 0 -11 -73 -132 -167 -274 -51
-78 -96 -150 -100 -160 -13 -36 -82 -130 -156 -212 -68 -75 -82 -98 -112 -186
-3 -11 3 -4 14 15 l20 35 0 -40 c1 -61 -17 -126 -45 -162 -13 -17 -24 -36 -24
-42 0 -14 17 -14 25 -1 12 19 25 -1 25 -38 0 -20 -9 -56 -20 -79 -10 -24 -15
-45 -11 -48 10 -6 27 12 40 46 9 20 10 17 5 -16 -4 -22 -15 -54 -25 -71 -22
-36 -14 -52 13 -27 17 15 18 14 18 -21 0 -20 -6 -52 -14 -71 -16 -37 -11 -51
12 -32 13 10 14 9 4 -9 -6 -11 -14 -45 -17 -75 -10 -83 -23 -115 -61 -149 -41
-35 -64 -40 -40 -8 28 38 58 109 63 148 3 20 -5 93 -17 161 -14 73 -24 167
-24 229 -1 58 -3 107 -6 110 -3 3 -13 21 -22 40 -14 28 -17 31 -17 13 -1 -12
-5 -25 -11 -28 -13 -8 -13 11 2 51 9 26 8 39 -5 70 l-16 39 0 -42 c-1 -23 -5
-44 -10 -47 -13 -8 -24 63 -20 127 3 43 -2 61 -25 100 -35 60 -54 146 -48 219
7 84 -14 163 -52 201 -20 20 -37 51 -44 79 -14 56 -44 79 -120 96 -30 7 -58
12 -63 12 -5 0 -9 -44 -9 -97 0 -132 -17 -455 -31 -577 -12 -113 -21 -135 -77
-190 -41 -39 -62 -41 -62 -5 0 22 -11 24 -28 7 -9 -9 -12 -5 -13 18 0 28 -1
28 -10 6 -6 -17 -4 -30 7 -48 27 -41 8 -38 -39 5 -52 48 -67 51 -67 13 0 -31
27 -75 40 -67 9 5 42 -47 39 -61 -1 -3 17 -26 40 -50 23 -25 39 -48 37 -53
-12 -18 -46 -18 -86 0 -42 19 -70 24 -70 13 0 -22 59 -94 69 -85 11 9 44 -49
48 -83 3 -27 0 -36 -12 -36 -15 0 -19 -10 -15 -45 2 -27 37 -63 64 -67 31 -4
26 -31 -10 -48 -26 -14 -30 -19 -23 -38 5 -14 5 -21 -1 -17 -5 3 -8 -16 -8
-45 2 -56 19 -75 61 -65 17 5 29 -1 50 -24 17 -19 37 -31 53 -31 29 0 58 -13
97 -46 15 -13 47 -29 70 -36 23 -7 67 -29 97 -49 99 -65 123 -72 145 -43 11
15 18 15 88 -2 65 -15 88 -16 147 -7 122 19 260 101 370 219 19 21 7 13 -27
-18 -117 -106 -236 -163 -362 -173 -79 -6 -58 7 39 24 88 16 211 79 291 149
74 64 118 118 169 205 26 43 47 66 80 84 61 34 137 93 185 145 22 23 29 33 15
22 -45 -37 -92 -67 -109 -69 -9 -1 -45 -15 -81 -32 -36 -17 -80 -34 -99 -37
-29 -5 -32 -4 -26 12 5 9 11 35 14 57 7 44 -4 38 166 90 95 29 137 50 248 123
52 34 71 42 81 33 10 -9 17 -7 27 6 13 17 13 17 -5 3 -18 -14 -19 -13 -14 2 6
14 2 15 -20 9 -15 -5 -48 -18 -74 -30 -26 -11 -49 -21 -52 -21 -2 0 -17 -5
-33 -11 -15 -6 -29 -10 -30 -10 -2 0 -21 -6 -44 -15 -59 -20 -60 -10 -2 20 26
14 44 25 38 25 -5 1 -17 -3 -25 -9 -9 -6 -17 -5 -22 3 -4 8 -24 -1 -62 -27
-31 -21 -56 -41 -56 -43 0 -3 12 -2 26 1 17 5 23 3 19 -4 -3 -5 -15 -10 -25
-10 -10 0 -22 -4 -25 -10 -3 -5 -17 -10 -31 -10 -25 0 -25 0 8 33 36 37 92
128 103 167 l7 25 -17 -23 c-9 -12 -20 -20 -25 -17 -4 3 -11 -2 -14 -11 -4 -9
-9 -14 -12 -12 -9 9 37 98 56 108 24 13 55 119 91 310 27 140 29 162 19 234
-11 87 -24 113 -46 95 -18 -15 -17 -53 1 -104 30 -85 12 -238 -51 -425 -30
-91 -72 -187 -74 -169 0 3 11 34 25 68 15 35 24 68 23 73 -2 6 -9 -7 -16 -28
-7 -21 -21 -50 -32 -64 l-20 -25 0 26 c0 29 57 122 71 113 5 -3 9 1 9 10 0 8
3 23 6 33 3 10 -18 -7 -46 -37 -29 -30 -49 -49 -45 -41 18 33 -18 -4 -55 -57
-40 -57 -113 -151 -175 -227 -28 -33 -35 -37 -49 -26 -12 10 -13 18 -5 35 6
11 -3 4 -21 -16 -17 -21 -36 -38 -41 -38 -20 0 -7 26 33 67 23 24 36 43 29 43
-11 0 -11 3 0 18 7 9 2 7 -12 -5 -26 -24 -53 -33 -31 -11 7 7 12 21 12 31 0
11 14 37 31 58 17 21 26 39 20 39 -7 0 -5 11 5 28 13 22 10 20 -15 -8 -17 -19
-31 -30 -31 -25 -1 6 -3 22 -5 37 -3 21 9 42 47 90 27 35 54 71 59 81 6 10 14
15 18 12 5 -2 16 16 26 41 10 26 35 73 56 104 74 112 124 244 108 287 -5 14
-1 47 12 90 21 75 24 109 9 118 -12 8 -58 -66 -75 -120 -13 -45 -98 -176 -140
-215 -13 -12 -35 -24 -49 -25 -23 -3 -24 -1 -15 23 l9 27 -19 -25 c-11 -14
-26 -36 -33 -50 -7 -14 -25 -40 -40 -58 -29 -33 -37 -23 -19 23 5 11 4 28 -1
38 -10 20 31 98 84 160 l27 32 2 -30 c1 -16 1 -33 0 -37 0 -4 6 -5 14 -2 21 9
175 327 175 364 0 34 -10 38 -33 12z m-997 -524 l0 -91 -30 44 c-27 40 -30 52
-30 124 l0 79 30 -32 c29 -32 30 -37 30 -124z m103 -18 c-5 -52 -23 -96 -23
-56 0 14 -3 16 -13 8 -11 -9 -12 2 -5 61 11 97 17 110 33 72 8 -19 11 -51 8
-85z m807 57 c0 -25 -67 -132 -102 -164 -20 -18 -21 -18 -13 6 6 20 4 23 -9
18 -9 -4 -16 -4 -16 -1 0 7 130 164 136 164 2 0 4 -11 4 -23z m-725 -190 c-6
-50 -9 -58 -16 -39 -5 13 -13 21 -18 18 -8 -5 3 72 15 104 4 13 7 12 16 -3 6
-11 7 -43 3 -80z m54 -20 c7 -23 11 -61 9 -84 -3 -40 -3 -41 -24 -25 -18 15
-20 26 -16 85 2 37 8 67 12 67 4 0 13 -19 19 -43z m633 -19 c-6 -26 -56 -103
-73 -114 -7 -4 -9 3 -7 17 2 17 -1 23 -12 21 -8 -2 8 19 35 47 56 56 66 61 57
29z m-899 -339 c7 -35 17 -59 24 -59 7 0 13 7 13 16 0 26 21 4 42 -44 19 -41
22 -44 34 -28 11 16 14 14 25 -23 10 -34 16 -40 32 -35 23 7 37 -10 37 -48 0
-49 -45 -31 -135 53 -89 84 -125 155 -131 258 l-4 76 26 -53 c14 -30 31 -80
37 -113z m-106 76 c-13 -38 -14 -39 -19 -12 -3 16 1 36 10 49 21 29 25 11 9
-37z m-187 -17 c0 -6 -7 -5 -15 2 -8 7 -15 17 -15 22 0 6 7 5 15 -2 8 -7 15
-17 15 -22z m1093 -285 c-10 -20 -27 -42 -38 -49 -19 -12 -21 -11 -19 13 1 34
67 116 72 90 2 -9 -5 -34 -15 -54z m-870 -18 c-3 -9 -8 -14 -10 -11 -3 3 -2 9
2 15 9 16 15 13 8 -4z m321 -24 c-8 -9 -22 12 -17 26 6 15 7 14 13 -3 4 -10 6
-21 4 -23z m515 -63 c-15 -30 -40 -58 -51 -58 -9 0 8 33 31 63 20 25 34 21 20
-5z m-31 -110 c-8 -12 -24 -28 -35 -35 -20 -13 -21 -13 -16 7 5 20 39 50 56
50 5 0 3 -10 -5 -22z m-808 -4 c0 -8 -5 -12 -10 -9 -6 4 -8 11 -5 16 9 14 15
11 15 -7z m108 -26 c-3 -38 22 -50 51 -24 17 15 19 15 31 1 8 -9 21 -14 31
-12 11 3 35 -12 64 -40 26 -24 56 -45 66 -46 13 -1 17 -7 13 -19 -3 -9 0 -26
5 -37 10 -18 8 -18 -32 -9 -54 12 -130 46 -201 92 -31 20 -60 36 -65 36 -4 0
-13 12 -20 27 -11 24 -10 29 9 45 34 28 50 23 48 -14z m12 -218 c0 -5 -2 -10
-4 -10 -3 0 -8 5 -11 10 -3 6 -1 10 4 10 6 0 11 -4 11 -10z"/>
<path d="M5018 2028 c-8 -13 -19 -34 -23 -48 -4 -14 -13 -31 -19 -39 -7 -9 0
-8 17 4 15 10 35 31 43 46 26 52 11 82 -18 37z"/>
<path d="M3094 2006 c-3 -8 -4 -23 -2 -33 3 -11 6 -6 9 15 6 34 2 42 -7 18z"/>
<path d="M4540 1825 c0 -15 46 -32 57 -21 10 9 -18 36 -38 36 -11 0 -19 -7
-19 -15z"/>
<path d="M4774 1718 l-29 -33 33 29 c30 28 37 36 29 36 -2 0 -16 -15 -33 -32z"/>
<path d="M4515 1540 c-3 -6 1 -7 9 -4 18 7 21 14 7 14 -6 0 -13 -4 -16 -10z"/>
</g>
</svg>
